<svg viewBox="0 0 150 150" xmlns="http://www.w3.org/2000/svg">
	<!-- Petals -->
	<ellipse cx="75" cy="35" rx="12" ry="25" fill="#FFB300" transform="rotate(0 75 75)"/>
	<ellipse cx="75" cy="35" rx="12" ry="25" fill="#FFC933" transform="rotate(45 75 75)"/>
	<ellipse cx="75" cy="35" rx="12" ry="25" fill="#FFB300" transform="rotate(90 75 75)"/>
	<ellipse cx="75" cy="35" rx="12" ry="25" fill="#FFC933" transform="rotate(135 75 75)"/>
	<ellipse cx="75" cy="35" rx="12" ry="25" fill="#FFB300" transform="rotate(180 75 75)"/>
	<ellipse cx="75" cy="35" rx="12" ry="25" fill="#FFC933" transform="rotate(225 75 75)"/>
	<ellipse cx="75" cy="35" rx="12" ry="25" fill="#FFB300" transform="rotate(270 75 75)"/>
	<ellipse cx="75" cy="35" rx="12" ry="25" fill="#FFC933" transform="rotate(315 75 75)"/>
	<!-- Center -->
	<circle cx="75" cy="75" r="20" fill="#6B4423"/>
	<circle cx="70" cy="72" r="3" fill="#8B6434" opacity="0.6"/>
	<circle cx="80" cy="73" r="2.5" fill="#8B6434" opacity="0.7"/>
	<circle cx="75" cy="80" r="2" fill="#8B6434" opacity="0.5"/>
</svg>
