<svg viewBox="0 0 120 120" xmlns="http://www.w3.org/2000/svg">
	<ellipse cx="60" cy="30" rx="10" ry="20" fill="#FFB300" transform="rotate(0 60 60)"/>
	<ellipse cx="60" cy="30" rx="10" ry="20" fill="#FFC933" transform="rotate(40 60 60)"/>
	<ellipse cx="60" cy="30" rx="10" ry="20" fill="#FFB300" transform="rotate(80 60 60)"/>
	<ellipse cx="60" cy="30" rx="10" ry="20" fill="#FFC933" transform="rotate(120 60 60)"/>
	<ellipse cx="60" cy="30" rx="10" ry="20" fill="#FFB300" transform="rotate(160 60 60)"/>
	<ellipse cx="60" cy="30" rx="10" ry="20" fill="#FFC933" transform="rotate(200 60 60)"/>
	<ellipse cx="60" cy="30" rx="10" ry="20" fill="#FFB300" transform="rotate(240 60 60)"/>
	<ellipse cx="60" cy="30" rx="10" ry="20" fill="#FFC933" transform="rotate(280 60 60)"/>
	<ellipse cx="60" cy="30" rx="10" ry="20" fill="#FFB300" transform="rotate(320 60 60)"/>
	<circle cx="60" cy="60" r="16" fill="#6B4423"/>
</svg>
