<svg viewBox="0 0 200 200" xmlns="http://www.w3.org/2000/svg">
	<!-- Main vine with curves -->
	<path d="M10,10 Q40,35 50,60 Q55,80 70,95 Q80,105 95,120" stroke="#5F7161" stroke-width="2.5" fill="none" opacity="0.85"/>
	<!-- Side tendrils -->
	<path d="M40,35 Q35,45 38,55" stroke="#5F7161" stroke-width="1.5" fill="none" opacity="0.7"/>
	<path d="M55,80 Q65,78 68,88" stroke="#5F7161" stroke-width="1.5" fill="none" opacity="0.7"/>
	<path d="M80,105 Q75,112 78,120" stroke="#5F7161" stroke-width="1.5" fill="none" opacity="0.7"/>
	<!-- Leaves along the vine -->
	<ellipse cx="38" cy="32" rx="7" ry="11" fill="#9CAF88" opacity="0.9" transform="rotate(-40 38 32)"/>
	<ellipse cx="48" cy="55" rx="9" ry="13" fill="#7A9B76" opacity="0.85" transform="rotate(25 48 55)"/>
	<ellipse cx="52" cy="60" rx="8" ry="12" fill="#9CAF88" opacity="0.9" transform="rotate(-15 52 60)"/>
	<ellipse cx="68" cy="88" rx="10" ry="14" fill="#9CAF88" opacity="0.85" transform="rotate(35 68 88)"/>
	<ellipse cx="75" cy="100" rx="9" ry="13" fill="#7A9B76" opacity="0.9" transform="rotate(-20 75 100)"/>
	<ellipse cx="88" cy="115" rx="11" ry="15" fill="#9CAF88" opacity="0.8" transform="rotate(15 88 115)"/>
	<!-- Small detail leaves -->
	<ellipse cx="35" cy="45" rx="6" ry="9" fill="#9CAF88" opacity="0.7" transform="rotate(60 35 45)"/>
	<ellipse cx="62" cy="75" rx="7" ry="10" fill="#7A9B76" opacity="0.75" transform="rotate(-50 62 75)"/>
</svg>
